<svg xmlns="http://www.w3.org/2000/svg" viewBox="0 0 21590 27940">
 <defs>
  <style type="text/css">
   <![CDATA[
    .fil8 {fill:#220910}
    .fil10 {fill:#236703}
    .fil11 {fill:#3B3124}
    .fil5 {fill:#54A131}
    .fil2 {fill:#594A38}
    .fil6 {fill:#635D5D}
    .fil1 {fill:#6B6A6E}
    .fil7 {fill:#878280}
    .fil3 {fill:#8E8D91}
    .fil0 {fill:#C7C3BD}
    .fil9 {fill:#DD2626}
    .fil4 {fill:#EFF3F3}
    .fil12 {fill:#FEC300}
    .fil13 {fill:white}
   ]]>
  </style>
 </defs>
 <g id="Capa_x0020_1">
  <metadata id="CorelCorpID_0Corel-Layer"/>
  <polygon class="fil0" points="7161,11914 7903,11914 7903,12656 7161,12656 7160,14058 6501,14058 6501,14800 12934,14800 12934,11914 12934,11254 12521,11254 10377,11254 10377,11913 10049,11913 8645,11913 8646,11254 7160,11254 "/>
  <polygon class="fil0" points="6831,6636 12520,6637 12521,4491 6831,4491 "/>
  <polygon class="fil0" points="4357,17274 4357,18346 4687,18346 4687,19006 4357,19006 4357,19419 5759,19419 5759,20078 5759,20821 8645,20821 8645,16944 7903,16945 7903,17604 7903,18346 7161,18346 7161,19006 6501,19006 6501,17605 7161,17604 7161,16945 5759,16944 5759,17274 "/>
  <polygon class="fil0" points="11119,20821 13593,20821 13593,16944 11862,16944 11119,16944 "/>
  <polygon class="fil1" points="12521,8038 12521,10512 12521,11254 12934,11254 14336,11254 14336,10512 14666,10512 14665,7293 12520,7294 "/>
  <polygon class="fil1" points="8645,20821 10047,20821 10047,16944 8645,16944 "/>
  <polygon class="fil0" points="14336,15462 14335,15872 14995,15872 14995,16532 16480,16533 16480,14057 14995,14058 14995,13316 14336,13316 "/>
  <polygon class="fil2" points="8646,10512 8646,11254 8645,11913 10049,11913 10049,8698 8975,8697 8233,8697 7573,8697 7573,9439 8645,9439 "/>
  <polygon class="fil1" points="11862,16944 13593,16944 13593,20821 14995,20821 14995,20078 14336,20078 14336,19419 14336,18676 14336,16532 14335,16200 11863,16201 "/>
  <polygon class="fil1" points="12934,14800 12934,15461 14336,15462 14336,13316 14336,12656 14336,11914 12934,11914 "/>
  <polygon class="fil3" points="5759,15460 8233,15460 8975,15460 11864,15460 12934,15461 12934,14800 6501,14800 5759,14800 "/>
  <polygon class="fil1" points="12520,6637 14665,6638 14666,4491 12521,4491 "/>
  <polygon class="fil0" points="14336,18676 14995,18676 14995,19419 16480,19420 16480,17273 14995,17274 14995,16532 14336,16532 "/>
  <polygon class="fil4" points="6831,4491 12521,4491 12521,3749 6831,3749 "/>
  <polygon class="fil2" points="6831,7295 7573,7295 8975,7295 10377,7295 11862,7295 12520,7294 12520,6637 6831,6636 "/>
  <polygon class="fil0" points="14336,11914 14336,12656 14995,12656 14995,13316 16480,13317 16480,11914 15738,11913 15738,11254 14996,11254 14336,11254 "/>
  <polygon class="fil1" points="16480,16533 17882,16534 17882,14056 16480,14057 "/>
  <polygon class="fil0" points="4357,16532 5759,16531 5759,15874 5759,15460 5759,14800 5759,14058 4357,14058 "/>
  <polygon class="fil0" points="4357,13316 5759,13316 6501,13316 6501,12656 5759,12656 5759,11254 4357,11254 "/>
  <polygon class="fil0" points="11861,8697 11861,9439 10376,9439 10377,10512 12521,10512 12521,8038 11862,8038 "/>
  <polygon class="fil1" points="16480,19420 17882,19421 17882,17272 16480,17273 "/>
  <polygon class="fil0" points="6831,10512 8646,10512 8645,9439 7573,9439 7573,8697 7573,8038 6831,8038 "/>
  <polygon class="fil3" points="7903,16945 8645,16944 10047,16944 11119,16944 11862,16944 11863,16201 8975,16202 8233,16202 7903,16202 "/>
  <polygon class="fil1" points="5759,15874 7159,15874 7159,16530 5759,16531 5759,16944 7161,16945 7903,16945 7903,16202 8233,16202 8233,15460 5759,15460 "/>
  <polygon class="fil5" points="5759,11254 5759,12656 6501,12656 6501,11913 7161,11914 7160,11254 6830,11255 6831,10512 5759,10512 "/>
  <polygon class="fil1" points="8975,16202 11863,16201 11864,15460 8975,15460 "/>
  <polygon class="fil1" points="16480,13317 17882,13318 17882,11914 16480,11914 "/>
  <polygon class="fil6" points="11863,16201 14335,16200 14335,15872 14336,15462 12934,15461 11864,15460 "/>
  <polygon class="fil3" points="10377,11254 12521,11254 12521,10512 10377,10512 "/>
  <polygon class="fil7" points="12521,4491 14666,4491 14666,3749 12521,3749 "/>
  <polygon class="fil8" points="10377,8038 11119,8038 11119,8697 11861,8697 11862,8038 11862,7295 10377,7295 "/>
  <polygon class="fil9" points="1140,19748 2542,19748 2542,19006 1883,19006 1883,18346 1140,18346 "/>
  <polygon class="fil9" points="1883,18346 2542,18346 2542,19006 3285,19006 3285,18346 3285,17604 1883,17604 "/>
  <polygon class="fil10" points="3285,19006 3285,19748 4027,19748 4027,19006 4357,19006 4687,19006 4687,18346 4357,18346 3285,18346 "/>
  <polygon class="fil8" points="7573,8038 7573,8697 8233,8697 8233,8038 8975,8038 8975,7295 7573,7295 "/>
  <polygon class="fil6" points="12520,7294 14665,7293 14665,6638 12520,6637 "/>
  <polygon class="fil3" points="7160,11254 8646,11254 8646,10512 6831,10512 6830,11255 "/>
  <polygon class="fil2" points="10376,9439 11861,9439 11861,8697 11119,8697 10376,8697 "/>
  <polygon class="fil3" points="16480,17273 16480,16533 14995,16532 14995,17274 "/>
  <polygon class="fil3" points="16480,14057 16480,13317 14995,13316 14995,14058 "/>
  <polygon class="fil11" points="10049,11913 10377,11913 10377,11254 10377,10512 10376,9439 10376,8697 10049,8698 "/>
  <polygon class="fil3" points="4357,17274 5759,17274 5759,16944 5759,16531 4357,16532 "/>
  <polygon class="fil4" points="4357,11254 5759,11254 5759,10512 4357,10512 "/>
  <polygon class="fil3" points="8975,8038 10377,8038 10377,7295 8975,7295 "/>
  <polygon class="fil7" points="16480,11254 17882,11254 17882,10512 16480,10512 "/>
  <polygon class="fil3" points="4357,14058 5759,14058 5759,13316 4357,13316 "/>
  <polygon class="fil6" points="16480,14057 17882,14056 17882,13318 16480,13317 "/>
  <polygon class="fil6" points="16480,17273 17882,17272 17882,16534 16480,16533 "/>
  <polygon class="fil3" points="14995,20078 16481,20078 16480,19420 14995,19419 "/>
  <polygon class="fil3" points="5759,20078 5759,19419 4357,19419 4357,20078 "/>
  <polygon class="fil7" points="12934,11914 14336,11914 14336,11254 12934,11254 "/>
  <polygon class="fil0" points="8975,8697 10049,8698 10376,8697 10377,8038 8975,8038 "/>
  <polygon class="fil10" points="16480,11914 17882,11914 17882,11254 16480,11254 "/>
  <polygon class="fil5" points="6501,13316 6501,14058 7160,14058 7161,12656 6501,12656 "/>
  <polygon class="fil5" points="7161,18346 7161,17604 6501,17605 6501,19006 7161,19006 "/>
  <polygon class="fil6" points="16481,20078 17882,20078 17882,19421 16480,19420 "/>
  <polygon class="fil6" points="5759,16531 7159,16530 7159,15874 5759,15874 "/>
  <polygon class="fil12" points="7161,12656 7903,12656 7903,11914 7161,11914 "/>
  <polygon class="fil3" points="6831,8038 7573,8038 7573,7295 6831,7295 "/>
  <polygon class="fil4" points="15738,11254 16480,11254 16480,10512 15737,10512 "/>
  <polygon class="fil10" points="8233,16202 8975,16202 8975,15460 8233,15460 "/>
  <polygon class="fil12" points="5759,14058 6501,14058 6501,13316 5759,13316 "/>
  <polygon class="fil12" points="7161,18346 7903,18346 7903,17604 7161,17604 "/>
  <polygon class="fil5" points="14996,11254 15738,11254 15737,10512 14996,10512 "/>
  <polygon class="fil5" points="5759,14800 6501,14800 6501,14058 5759,14058 "/>
  <polygon class="fil0" points="6501,12656 7161,12656 7161,11914 6501,11913 "/>
  <polygon class="fil9" points="10376,8697 11119,8697 11119,8038 10377,8038 "/>
  <polygon class="fil4" points="14336,11254 14996,11254 14996,10512 14666,10512 14336,10512 "/>
  <polygon class="fil3" points="14336,19419 14995,19419 14995,18676 14336,18676 "/>
  <polygon class="fil3" points="11862,8038 12521,8038 12520,7294 11862,7295 "/>
  <polygon class="fil9" points="8233,8697 8975,8697 8975,8038 8233,8038 "/>
  <polygon class="fil5" points="16480,11914 16480,11254 15738,11254 15738,11913 "/>
  <polygon class="fil5" points="7161,17604 7903,17604 7903,16945 7161,16945 "/>
  <polygon class="fil3" points="14335,16200 14336,16532 14995,16532 14995,15872 14335,15872 "/>
  <polygon class="fil3" points="14336,13316 14995,13316 14995,12656 14336,12656 "/>
  <polygon class="fil0" points="14995,20078 14995,19419 14336,19419 14336,20078 "/>
  <polygon class="fil13" points="2542,19006 2542,18346 1883,18346 1883,19006 "/>
 </g>
</svg>
